# xmcd
#
# Track frame offsets: 
#        150
#        13155
#        26274
#        37946
#        49969
#        61712
#        76092
#        89846
#        102782
#        114548
#        129072
#        141059
#        155356
#        170593
#        182121
#        196850
#        209318
#        223175
#        236079
#        249204
#        263768
#        274960
#        289045
#        302051
#        313861
#
# Disc length: 4339 seconds
#
# Revision: 1
# Processed by: cddbd v1.5.2PL0 Copyright (c) Steve Scherf et al.
# Submitted via: ExactAudioCopyFreeDBPlugin 1.0
#
DISCID=5b10f119
DTITLE=Various Artist - The Atlantic Records Story [Real Gone Music]
DYEAR=2016
DGENRE=Rhythm and Blues
TTITLE0=Professor Longhair - Mardi Gras in New Orleans
TTITLE1=Stick McGhee - Drank Up All the Wine Last Night
TTITLE2=Vann Walls - Tee-Nah-Nah
TTITLE3=Ruth Brown - I Can Dream Can't I
TTITLE4=Ruth Brown - Sentimental Journey
TTITLE5=Al Hibbler - Danny Boy
TTITLE6=Joe Morris - Anytime, Anyplace, Anywhere (with Laura Tate)
TTITLE7=Ruth Brown - Teardrops from My Eyes
TTITLE8=Ruth Brown - I'll Wait for You
TTITLE9=The Clovers - Don't You Know I Love You
TTITLE10=Stick McGhee - One Monkey Don't Stop the Show
TTITLE11=The Cardinals - Shouldn't I Know
TTITLE12=Joe Turner - Chains of Love
TTITLE13=The Clovers - Fool, Fool, Fool
TTITLE14=The Clovers - Needless
TTITLE15=Joe Turner - The Chill is On
TTITLE16=The Cardinals - I'll Always Love You
TTITLE17=The Cardinals - Wheel of Fortune
TTITLE18=Joe Turner - Sweet Sixteen
TTITLE19=Ruth Brown - 5-10-15 Hours
TTITLE20=The Clovers - One Mint Julep
TTITLE21=The Clovers - Ting-A-Ling
TTITLE22=Ruth Brown - Daddy Daddy
TTITLE23=Willis Jackson - Gator's Groove
TTITLE24=Ray Charles - Roll with Me Baby
EXTD=
EXTT0=
EXTT1=
EXTT2=
EXTT3=
EXTT4=
EXTT5=
EXTT6=
EXTT7=
EXTT8=
EXTT9=
EXTT10=
EXTT11=
EXTT12=
EXTT13=
EXTT14=
EXTT15=
EXTT16=
EXTT17=
EXTT18=
EXTT19=
EXTT20=
EXTT21=
EXTT22=
EXTT23=
EXTT24=
PLAYORDER=
